<?xml version="1.0" encoding="iso-8859-1"?>
<!-- Generator: Adobe Illustrator 16.0.0, SVG Export Plug-In . SVG Version: 6.00 Build 0)  -->
<!DOCTYPE svg PUBLIC "-//W3C//DTD SVG 1.1//EN" "http://www.w3.org/Graphics/SVG/1.1/DTD/svg11.dtd">
<svg version="1.1" id="Capa_1" xmlns="http://www.w3.org/2000/svg" xmlns:xlink="http://www.w3.org/1999/xlink" x="0px" y="0px"
	 width="223.133px" height="223.134px" viewBox="0 0 223.133 223.134" style="enable-background:new 0 0 223.133 223.134;"
	 xml:space="preserve">
<g>
	<g>
		<path d="M102.946,40.749c0.691,0.716,1.408,1.456,2.049,2.223c1.467,1.751,2.479,3.215,3.284,4.744
			c2.118,4.03,0.509,8.731-1.706,11.789c-0.234,0.321-0.238,0.757-0.011,1.084c0.178,0.257,0.467,0.402,0.77,0.402
			c0.084,0,0.167-0.011,0.249-0.032c4.438-1.222,8.181-5.809,8.707-10.67c0.311-2.866,0.002-5.517-0.912-7.876
			c-0.656-1.688-1.496-3.358-2.644-5.262c-0.651-1.082-1.45-2.07-2.222-3.027c-0.222-0.272-0.44-0.545-0.655-0.817
			c-1.58-2.002-2.621-3.877-3.187-5.73c-1.226-4.007-0.547-8.639,2.131-14.573c1.855-4.111,4.202-7.97,6.45-11.568
			c0.211-0.34,0.185-0.776-0.067-1.087c-0.253-0.312-0.677-0.428-1.052-0.291c-3.793,1.389-7.797,4.283-11.269,8.152
			c-3.697,4.117-5.984,8.774-6.798,13.843c-0.819,5.094,0.584,10.645,3.853,15.229C100.83,38.56,101.904,39.672,102.946,40.749z"/>
		<path d="M128.062,34.154c-0.332-0.854-0.754-1.694-1.327-2.646c-0.341-0.568-0.738-1.062-1.134-1.551l-0.302-0.376
			c-0.668-0.848-1.106-1.628-1.338-2.389c-0.504-1.651-0.199-3.623,0.965-6.202c0.854-1.895,1.947-3.688,2.994-5.365
			c0.324-0.523,0.283-1.196-0.104-1.67c-0.381-0.473-1.042-0.658-1.619-0.449c-1.949,0.713-3.988,2.181-5.74,4.134
			c-1.883,2.097-3.048,4.476-3.463,7.069c-0.431,2.671,0.299,5.57,1.997,7.955c0.476,0.667,1.009,1.219,1.548,1.776
			c0.307,0.316,0.623,0.643,0.906,0.982c0.646,0.77,1.09,1.409,1.438,2.069c0.793,1.506,0.142,3.33-0.731,4.534
			c-0.36,0.496-0.368,1.168-0.019,1.672c0.271,0.389,0.714,0.62,1.187,0.62c0.132,0,0.263-0.018,0.384-0.051
			c2.518-0.693,4.559-3.18,4.854-5.913C128.721,36.838,128.555,35.425,128.062,34.154z"/>
		<path d="M204.702,33.087c-0.537-0.267-5.421-2.592-11.688-2.592c-5.739,0-10.752,1.901-14.897,5.653
			c-3.413,3.087-12.823,12.402-27.972,27.688l-4.225,4.262H27.416c-7.262,0-13.146,5.886-13.146,13.146
			c0,7.264,5.885,13.149,13.146,13.149h0.959c-5.408,11.604-8.439,24.54-8.439,38.188c0,50.011,40.543,90.554,90.555,90.554
			s90.555-40.543,90.555-90.554c0-13.648-3.037-26.581-8.446-38.188h0.964c7.262,0,13.148-5.887,13.148-13.149
			c0-7.26-5.888-13.146-13.148-13.146h-19.657h-6.974l0.033-0.034c11.332-11.391,18.449-18.408,21.156-20.856
			c1.342-1.215,2.983-1.806,5.019-1.806c2.682,0,4.979,1.065,4.979,1.064c1.018,0.502,2.153,0.767,3.284,0.767l0,0
			c2.866,0,5.433-1.598,6.698-4.171C209.913,39.372,208.383,34.895,204.702,33.087z"/>
	</g>
</g>
<g>
</g>
<g>
</g>
<g>
</g>
<g>
</g>
<g>
</g>
<g>
</g>
<g>
</g>
<g>
</g>
<g>
</g>
<g>
</g>
<g>
</g>
<g>
</g>
<g>
</g>
<g>
</g>
<g>
</g>
</svg>
